# xmcd CD database file
#
# Track frame offsets:
#	150
#	13604
#	28430
#	43842
#	58712
#	74905
#	88771
#	104497
#	114753
#	127080
#
# Disc length: 1812 seconds
#
# Revision: 0
# Processed by: cddbd v1.5.2PL0 Copyright (c) Steve Scherf et al.
# Submitted via: CDex 1.70beta2
#
DISCID=9507120a
DTITLE=Sean O'Boyle - Ocean Baby
DYEAR=2007
DGENRE=New Age
TTITLE0=Waves
TTITLE1=Starfish
TTITLE2=Whale Song
TTITLE3=Dolphin Dreams
TTITLE4=Migration
TTITLE5=Sand
TTITLE6=Coral Reef
TTITLE7=Angel Fish
TTITLE8=Sea Turtle
TTITLE9=Tropical Fish
EXTD=YEAR: 2007
EXTT0=
EXTT1=
EXTT2=
EXTT3=
EXTT4=
EXTT5=
EXTT6=
EXTT7=
EXTT8=
EXTT9=
PLAYORDER=
